<?xml version="1.0" encoding="UTF-8"?>
<svg version="1.1" xmlns="http://www.w3.org/2000/svg" width="800" height="800">
<path d="M0 0 C264 0 528 0 800 0 C800 264 800 528 800 800 C536 800 272 800 0 800 C0 536 0 272 0 0 Z " fill="#FEFEFE" transform="translate(0,0)"/>
<path d="M0 0 C8.4717821 5.17602011 17.00450983 10.23616195 25.58251953 15.23388672 C35.65887755 21.1079945 45.66407113 27.08598133 55.62011719 33.16162109 C65.06563202 38.92426392 74.56013078 44.59925275 84.08251953 50.23388672 C94.18485044 56.21168686 104.24996728 62.24418741 114.27001953 68.35888672 C123.65101025 74.08315131 133.08898387 79.69834366 142.58251953 85.23388672 C153.22919674 91.44180991 163.79464694 97.76910582 174.31030273 104.19628906 C180.72211995 108.11081968 187.1606953 111.97407456 193.63720703 115.78076172 C194.35770737 116.20503448 195.0782077 116.62930725 195.82054138 117.06643677 C199.3218388 119.12781114 202.82648427 121.1830135 206.33764648 123.22753906 C215.35567978 128.51021142 223.95704967 133.9112421 230.95751953 141.79638672 C231.67681641 142.59173828 232.39611328 143.38708984 233.13720703 144.20654297 C235.21900861 146.91121289 236.65503865 149.64101147 238.08251953 152.73388672 C237.25236328 153.18634766 236.42220703 153.63880859 235.56689453 154.10498047 C225.98832205 159.38444534 216.62932049 165.00186396 207.29528809 170.69992065 C197.59997251 176.61728384 187.85827454 182.45045088 178.08251953 188.23388672 C164.33457246 196.37026147 150.66892521 204.63533196 137.02539062 212.9453125 C131.06151636 216.56994689 125.07497725 220.15675635 119.08251953 223.73388672 C115.94902098 220.80790462 113.69015475 217.78490149 111.39501953 214.17138672 C83.41477804 171.58153574 37.17398997 141.96769842 -12.45654297 131.57763672 C-64.23765195 121.50584965 -118.37641303 129.90308376 -162.87744141 159.01611328 C-166.99121797 161.79443959 -170.96938732 164.72557897 -174.91748047 167.73388672 C-175.79662109 168.40033203 -176.67576172 169.06677734 -177.58154297 169.75341797 C-198.19134717 185.81597966 -214.90365981 205.07635832 -227.91748047 227.73388672 C-228.27551758 228.35424805 -228.63355469 228.97460938 -229.00244141 229.61376953 C-241.78834533 252.00296296 -249.32954136 276.28592377 -252.91748047 301.73388672 C-253.10181641 302.92240234 -253.28615234 304.11091797 -253.47607422 305.33544922 C-254.24070661 311.68670611 -254.20698984 318.09494303 -254.22998047 324.48388672 C-254.23259888 325.18108826 -254.23521729 325.87828979 -254.23791504 326.59661865 C-254.245595 345.87167623 -252.2869369 365.44806313 -245.91748047 383.73388672 C-245.41875464 385.26861141 -244.92147484 386.80380642 -244.42529297 388.33935547 C-232.21568123 425.38672348 -209.84978116 458.70611743 -178.91748047 482.73388672 C-178.36318359 483.16459473 -177.80888672 483.59530273 -177.23779297 484.0390625 C-135.20936367 516.43597675 -81.65717012 531.66595339 -28.83935547 524.85498047 C-13.70453131 522.66973848 0.74106883 518.99974505 15.08251953 513.73388672 C15.75702148 513.49589355 16.43152344 513.25790039 17.12646484 513.01269531 C55.65632994 499.36793826 93.08935843 470.82194209 114.08251953 435.35498047 C116.08251953 432.73388672 116.08251953 432.73388672 118.36450195 431.88549805 C121.98178484 431.6837256 123.52165684 432.75860464 126.57080078 434.68701172 C127.65296875 435.35925781 128.73513672 436.03150391 129.85009766 436.72412109 C130.42574463 437.09110107 131.0013916 437.45808105 131.59448242 437.83618164 C134.06623048 439.41173251 136.55765883 440.95490577 139.04806519 442.50073242 C140.36789958 443.32049972 141.68666783 444.14198573 143.00442505 444.96508789 C149.63082574 449.09923562 156.34401838 453.08077287 163.07144165 457.04766846 C174.58067642 463.83629887 186.03428863 470.71130115 197.44317627 477.66708374 C206.3019042 483.06723699 215.20274654 488.38938498 224.15917969 493.62597656 C228.56150598 496.20706415 232.8732655 498.84773697 237.08251953 501.73388672 C235.15222818 505.90307399 233.07935744 509.24559455 230.02001953 512.67138672 C229.32779297 513.46416016 228.63556641 514.25693359 227.92236328 515.07373047 C220.3516788 522.16538952 211.16188154 527.19019413 202.25585938 532.40844727 C198.69545445 534.49503976 195.14323624 536.59549394 191.59033203 538.69482422 C190.87000793 539.12007385 190.14968384 539.54532349 189.40753174 539.98345947 C182.59705305 544.0092416 175.83580326 548.11310687 169.08251953 552.23388672 C159.20346385 558.2562805 149.2847826 564.20825104 139.33251953 570.10888672 C138.66675903 570.50364197 138.00099854 570.89839722 137.31506348 571.30511475 C131.89185816 574.51995207 126.46647734 577.7311114 121.04101562 580.94213867 C116.30383908 583.74601667 111.56751376 586.55132479 106.83251953 589.35888672 C106.16643677 589.7538031 105.500354 590.14871948 104.81408691 590.55560303 C94.96166496 596.40004228 85.15349953 602.3134638 75.37243652 608.27642822 C65.30928518 614.40963603 55.18660145 620.43825459 45.04452515 626.43988037 C35.62239147 632.01694643 26.24141206 637.65589071 16.89501953 643.35888672 C7.11297014 649.32312313 -2.71997946 655.19198411 -12.60498047 660.98388672 C-13.21344818 661.34073547 -13.82191589 661.69758423 -14.44882202 662.06524658 C-32.62832695 672.71921866 -46.68755276 679.8769777 -68.31591797 676.14794922 C-77.11960407 673.51890323 -85.07105269 668.4089768 -92.91748047 663.73388672 C-94.02994141 663.07775391 -95.14240234 662.42162109 -96.28857422 661.74560547 C-102.24081455 658.20178608 -108.15203961 654.59126305 -114.06591797 650.98388672 C-116.39117188 649.56677919 -118.71661444 648.14998866 -121.04248047 646.73388672 C-121.939245 646.18776733 -121.939245 646.18776733 -122.85412598 645.63061523 C-131.98872373 640.07222682 -141.18015642 634.61958642 -150.41748047 629.23388672 C-159.91107344 623.69843553 -169.34891093 618.08302217 -178.72998047 612.35888672 C-188.91790852 606.14244711 -199.14964636 600.00498013 -209.41748047 593.92138672 C-210.10230499 593.51553345 -210.78712952 593.10968018 -211.4927063 592.69152832 C-214.16571447 591.10741179 -216.83876501 589.52336681 -219.51194763 587.93954468 C-230.1577891 581.63043358 -240.76965898 575.26605881 -251.33544922 568.82373047 C-253.67505246 567.39755421 -256.01489411 565.97177015 -258.35498047 564.54638672 C-258.94541138 564.18671814 -259.53584229 563.82704956 -260.14416504 563.45648193 C-268.58544398 558.31874826 -277.07329642 553.2683196 -285.60900879 548.28915405 C-291.05084817 545.11376823 -296.48515695 541.92551774 -301.91748047 538.73388672 C-302.54684509 538.36440918 -303.17620972 537.99493164 -303.824646 537.61425781 C-307.65374061 535.36414258 -311.47427719 533.10041665 -315.28515625 530.81958008 C-316.47338683 530.11069071 -317.663892 529.40559629 -318.85693359 528.70483398 C-336.44706572 518.36230079 -348.44738936 505.4648257 -354.27326894 485.63796031 C-355.43837589 480.38571604 -355.32898992 475.15695488 -355.2984314 469.79859924 C-355.30311137 468.52783143 -355.30779134 467.25706363 -355.31261313 465.9477877 C-355.32506311 462.4456463 -355.3189804 458.94375216 -355.30965447 455.44161022 C-355.30283944 451.6548843 -355.31335737 447.86819955 -355.32159424 444.08148193 C-355.33490807 436.67293138 -355.33206423 429.2644722 -355.32335632 421.85591812 C-355.3165704 415.83221578 -355.31566697 409.80853898 -355.31892776 403.78483391 C-355.31938746 402.92622741 -355.31984716 402.06762092 -355.32032079 401.18299605 C-355.32128001 399.43852742 -355.32225265 397.69405881 -355.32323857 395.9495902 C-355.33178571 379.60559296 -355.32196921 363.26164626 -355.30583747 346.91765731 C-355.2924373 332.90772604 -355.29476121 318.89786937 -355.30859375 304.88793945 C-355.32466564 288.60241577 -355.33095928 272.31693637 -355.32175696 256.03140587 C-355.32080136 254.29318902 -355.31985824 252.55497216 -355.31892776 250.81675529 C-355.31846494 249.96161471 -355.31800211 249.10647413 -355.31752526 248.2254202 C-355.31494002 242.21266819 -355.31929636 236.19994437 -355.32636642 230.18719673 C-355.33479962 222.85425035 -355.33246324 215.52140025 -355.31652419 208.18846483 C-355.30866552 204.45036187 -355.30550854 200.71241916 -355.31547165 196.97431755 C-355.3261274 192.9147928 -355.3133634 188.8556691 -355.2984314 184.79615784 C-355.30512356 183.62493537 -355.31181573 182.4537129 -355.31871068 181.24699885 C-355.19956145 164.5079775 -348.84225774 149.52186804 -337.12207031 137.65405273 C-334.14464418 134.83436017 -330.96843837 132.62773799 -327.49169922 130.44091797 C-326.88766266 130.05979858 -326.2836261 129.6786792 -325.6612854 129.28601074 C-319.43697497 125.38261095 -313.12077992 121.63224429 -306.78823853 117.90789795 C-303.28721372 115.84840861 -299.7916545 113.77968986 -296.29638672 111.71044922 C-295.58904892 111.29179596 -294.88171112 110.8731427 -294.15293884 110.44180298 C-287.31136568 106.38617064 -280.51794512 102.25338795 -273.72998047 98.10888672 C-263.74748978 92.01672255 -253.6934314 86.05947377 -243.59088135 80.16882324 C-234.12543492 74.64686443 -224.73397259 69.01445055 -215.37988281 63.30615234 C-205.26072292 57.13252336 -195.08178869 51.0649107 -184.88031006 45.02844238 C-175.45791468 39.45118971 -166.07638087 33.81249251 -156.72998047 28.10888672 C-146.7535936 22.02131241 -136.70830058 16.06388752 -126.61001587 10.1809082 C-119.81357323 6.22010404 -113.04129006 2.22580339 -106.32373047 -1.86767578 C-105.6993811 -2.24813049 -105.07503174 -2.62858521 -104.4317627 -3.02056885 C-101.46415415 -4.83126876 -98.50047479 -6.64797334 -95.54052734 -8.47119141 C-57.37348235 -31.85797364 -35.69478882 -21.82490997 0 0 Z " fill="#9A5196" transform="translate(454.91748046875,73.26611328125)"/>
<path d="M0 0 C1.42441462 0.47805696 2.84888922 0.95593523 4.2734375 1.43359375 C46.05924469 15.87895756 83.50983869 46.99938262 106 85 C115.23901773 79.73964451 124.45210688 74.43762435 133.625 69.0625 C134.24216888 68.70105896 134.85933777 68.33961792 135.49520874 67.96722412 C145.22672219 62.26339293 154.89163775 56.45778307 164.5206604 50.58279419 C175.53809063 43.86157229 186.62184915 37.25592706 197.7277832 30.68212891 C198.35774704 30.30899567 198.98771088 29.93586243 199.63676453 29.55142212 C200.88148318 28.81499544 202.12700519 28.07992474 203.37336731 27.34628296 C206.66659371 25.40353583 209.93372018 23.42714089 213.17724609 21.40234375 C213.86106857 20.97961182 214.54489105 20.55687988 215.24943542 20.12133789 C216.56358145 19.30740182 217.87271312 18.48529768 219.17597961 17.65405273 C220.73837665 16.69110539 222.36594558 15.83559452 224 15 C227 16 227 16 228.09765625 17.78515625 C228.41605469 18.53667969 228.73445313 19.28820312 229.0625 20.0625 C229.54396484 21.16271484 229.54396484 21.16271484 230.03515625 22.28515625 C232.86360877 30.24375746 233.2913425 37.30477903 233.27415466 45.70582581 C233.27939134 46.97614605 233.28462802 48.2464663 233.29002339 49.5552811 C233.30414429 53.06555958 233.30586781 56.57574926 233.30542648 60.08605206 C233.30707995 63.87834494 233.32015642 67.6706018 233.33161926 71.46287537 C233.35442843 79.74826804 233.36238562 88.03363503 233.36744571 96.31905484 C233.37070779 101.49794917 233.37723339 106.6768361 233.3844471 111.85572624 C233.40400849 126.21018642 233.42041514 140.56463975 233.42332363 154.91911411 C233.4235112 155.83695442 233.42369877 156.75479474 233.42389202 157.70044839 C233.42425826 159.56093307 233.42462196 161.42141776 233.42498314 163.28190244 C233.42516595 164.20538098 233.42534876 165.12885952 233.42553711 166.08032227 C233.42580793 167.46724198 233.42580793 167.46724198 233.42608423 168.88218027 C233.4296237 183.85454463 233.45663396 198.82676498 233.494035 213.79907943 C233.53217551 229.19131172 233.55148153 244.58347267 233.55178314 259.97575325 C233.55236646 268.609722 233.56077673 277.24351896 233.58978081 285.87744331 C233.61437179 293.23121692 233.62152587 300.5847561 233.60653328 307.93855978 C233.59939547 311.68536326 233.60008485 315.43170457 233.62294388 319.17845535 C233.7165929 335.48459456 233.56236836 349.26226943 226 364 C221.93899269 362.48945709 218.20010377 360.5665494 214.4375 358.4375 C213.75751953 358.05384277 213.07753906 357.67018555 212.37695312 357.27490234 C204.28364226 352.65891227 196.3482662 347.77905514 188.39624023 342.92553711 C179.30517296 337.38006515 170.16499765 331.92228178 161 326.5 C150.46544234 320.26463583 139.96142036 313.98238944 129.5 307.625 C128.91863281 307.27187744 128.33726562 306.91875488 127.73828125 306.55493164 C126.08541826 305.55049588 124.43332098 304.54480042 122.78125 303.5390625 C121.28078125 302.63075684 121.28078125 302.63075684 119.75 301.70410156 C118.01945142 300.63172682 116.30747583 299.52816096 114.625 298.38183594 C110.75769007 295.71118897 110.75769007 295.71118897 106.234375 294.8515625 C103.12013196 296.45223986 102.0486512 298.38493454 100.25 301.375 C93.36203929 312.2669902 84.79411095 321.63852705 76 331 C75.41863281 331.63550781 74.83726562 332.27101563 74.23828125 332.92578125 C47.69774682 360.93707577 8.31855842 378.60136887 -29 386 C-30.0533252 386.22429687 -30.0533252 386.22429687 -31.12792969 386.453125 C-81.31908192 396.90117105 -134.75556636 383.59635551 -177.1875 356.0625 C-203.45164187 338.04572343 -225.04360376 315.6358203 -241 288 C-241.65613281 286.8759375 -242.31226563 285.751875 -242.98828125 284.59375 C-248.88096371 274.20575177 -253.02022478 263.23570672 -257 252 C-257.25410645 251.30293945 -257.50821289 250.60587891 -257.77001953 249.88769531 C-262.22017029 237.58561074 -264.12930783 224.90048755 -266 212 C-266.1959375 210.75734375 -266.391875 209.5146875 -266.59375 208.234375 C-267.36281999 201.77814794 -267.24447047 195.24269662 -267.25 188.75 C-267.25067474 188.03758148 -267.25134949 187.32516296 -267.25204468 186.59115601 C-267.23438722 174.8225407 -266.44657499 163.52873871 -264 152 C-263.74259033 150.7320459 -263.74259033 150.7320459 -263.47998047 149.43847656 C-253.57165694 101.39329028 -226.35041148 58.33918814 -187 29 C-186.41814941 28.56268555 -185.83629883 28.12537109 -185.23681641 27.67480469 C-132.36421045 -11.86522289 -62.14840853 -21.79758592 0 0 Z " fill="#7F3A86" transform="translate(467,211)"/>
<path d="M0 0 C1.42441462 0.47805696 2.84888922 0.95593523 4.2734375 1.43359375 C40.44014172 13.93643229 73.2280211 39.03839139 95.9375 69.75 C96.59226318 70.63425659 96.59226318 70.63425659 97.26025391 71.53637695 C100.5761672 76.14351583 103.32674724 80.99700497 106 86 C89.98925617 95.77360392 73.92892459 105.45677631 57.78466797 115.00830078 C51.33648993 118.82448517 44.89784229 122.65438174 38.48828125 126.53515625 C37.60590538 127.06855621 37.60590538 127.06855621 36.70570374 127.61273193 C33.94617333 129.28105197 31.18928152 130.95342207 28.43676758 132.63330078 C27.4805249 133.21192871 26.52428223 133.79055664 25.5390625 134.38671875 C24.70584473 134.89420654 23.87262695 135.40169434 23.01416016 135.92456055 C21 137 21 137 19 137 C17.80859375 135.3828125 17.80859375 135.3828125 16.4375 133.125 C2.06145135 110.8979539 -20.75203608 98.03918008 -45.77734375 91.24609375 C-62.08625209 87.82146248 -80.21191301 88.77732484 -96 94 C-96.63695801 94.20898926 -97.27391602 94.41797852 -97.93017578 94.63330078 C-123.95434843 103.48032662 -143.31505311 121.54189679 -156.125 145.6875 C-162.66579735 159.0847364 -165.18008022 172.24520757 -165.1875 187.0625 C-165.19974609 188.32255859 -165.21199219 189.58261719 -165.22460938 190.88085938 C-165.26236739 215.23477853 -156.4571743 237.98491763 -140 256 C-139.30261719 256.77859375 -138.60523438 257.5571875 -137.88671875 258.359375 C-125.87702848 271.09359868 -109.8025573 279.93944688 -93.125 284.9375 C-92.46016602 285.13698242 -91.79533203 285.33646484 -91.11035156 285.54199219 C-65.68078849 292.58692299 -38.50317043 287.40772436 -15.6328125 275.203125 C-12.99008983 273.5710753 -10.48822127 271.85798102 -8 270 C-7.154375 269.37351562 -6.30875 268.74703125 -5.4375 268.1015625 C4.32924812 260.56806472 12.02874401 252.16245765 19 242 C23.22599373 242.59162945 26.1899209 244.05146234 29.84765625 246.21875 C30.40788986 246.54827667 30.96812347 246.87780334 31.54533386 247.21731567 C33.38873256 248.30438307 35.22563137 249.40194023 37.0625 250.5 C38.3607356 251.26916828 39.65924273 252.03787844 40.95800781 252.80615234 C52.06545494 259.3902556 63.10122661 266.0934628 74.125 272.81640625 C84.71396384 279.27076178 95.35823267 285.63319065 106 292 C82.4122054 335.87511474 37.47008572 367.14776 -9.52783203 381.28173828 C-15.96756282 383.15273255 -22.4232902 384.69612729 -29 386 C-30.0533252 386.22429687 -30.0533252 386.22429687 -31.12792969 386.453125 C-81.31908192 396.90117105 -134.75556636 383.59635551 -177.1875 356.0625 C-203.45164187 338.04572343 -225.04360376 315.6358203 -241 288 C-241.65613281 286.8759375 -242.31226563 285.751875 -242.98828125 284.59375 C-248.88096371 274.20575177 -253.02022478 263.23570672 -257 252 C-257.25410645 251.30293945 -257.50821289 250.60587891 -257.77001953 249.88769531 C-262.22017029 237.58561074 -264.12930783 224.90048755 -266 212 C-266.1959375 210.75734375 -266.391875 209.5146875 -266.59375 208.234375 C-267.36281999 201.77814794 -267.24447047 195.24269662 -267.25 188.75 C-267.25067474 188.03758148 -267.25134949 187.32516296 -267.25204468 186.59115601 C-267.23438722 174.8225407 -266.44657499 163.52873871 -264 152 C-263.74259033 150.7320459 -263.74259033 150.7320459 -263.47998047 149.43847656 C-253.57165694 101.39329028 -226.35041148 58.33918814 -187 29 C-186.41814941 28.56268555 -185.83629883 28.12537109 -185.23681641 27.67480469 C-132.36421045 -11.86522289 -62.14840853 -21.79758592 0 0 Z " fill="#FEFEFE" transform="translate(467,211)"/>
<path d="M0 0 C3.13349856 2.9259821 5.39236478 5.94898522 7.6875 9.5625 C37.17168971 54.44157105 84.78514289 82.58986178 136.65234375 93.56103516 C171.71411355 100.33433159 208.68315223 96.23319762 242 84 C242.67450195 83.76200684 243.34900391 83.52401367 244.04394531 83.27880859 C282.57381041 69.63405154 320.0068389 41.08805538 341 5.62109375 C343 3 343 3 345.28198242 2.15161133 C348.89926531 1.94983888 350.43913731 3.02471792 353.48828125 4.953125 C354.57044922 5.62537109 355.65261719 6.29761719 356.76757812 6.99023438 C357.3432251 7.35721436 357.91887207 7.72419434 358.51196289 8.10229492 C360.98371095 9.67784579 363.4751393 11.22101905 365.96554565 12.7668457 C367.28538005 13.586613 368.6041483 14.40809902 369.92190552 15.23120117 C376.54830621 19.3653489 383.26149885 23.34688615 389.98892212 27.31378174 C401.49815688 34.10241215 412.9517691 40.97741444 424.36065674 47.93319702 C433.21938467 53.33335027 442.12022701 58.65549826 451.07666016 63.89208984 C455.47898644 66.47317743 459.79074597 69.11385025 464 72 C462.06970865 76.16918727 459.9968379 79.51170783 456.9375 82.9375 C456.24527344 83.73027344 455.55304687 84.52304687 454.83984375 85.33984375 C447.26915927 92.4315028 438.07936201 97.45630741 429.17333984 102.67456055 C425.61293492 104.76115304 422.06071671 106.86160723 418.5078125 108.9609375 C417.7874884 109.38618713 417.06716431 109.81143677 416.32501221 110.24957275 C409.51453352 114.27535488 402.75328373 118.37922015 396 122.5 C386.12094432 128.52239378 376.20226307 134.47436432 366.25 140.375 C365.5842395 140.76975525 364.918479 141.1645105 364.23254395 141.57122803 C358.80933863 144.78606535 353.38395781 147.99722468 347.95849609 151.20825195 C343.22131955 154.01212996 338.48499423 156.81743807 333.75 159.625 C333.08391724 160.01991638 332.41783447 160.41483276 331.73156738 160.82171631 C321.87914543 166.66615556 312.07098 172.57957708 302.28991699 178.5425415 C292.22676565 184.67574931 282.10408192 190.70436787 271.96200562 196.70599365 C262.53987193 202.28305971 253.15889253 207.92200399 243.8125 213.625 C234.03045061 219.58923641 224.19750101 225.45809739 214.3125 231.25 C213.39979843 231.78527313 213.39979843 231.78527313 212.46865845 232.33135986 C194.28915351 242.98533194 180.2299277 250.14309098 158.6015625 246.4140625 C149.7978764 243.78501651 141.84642778 238.67509008 134 234 C132.33130859 233.01580078 132.33130859 233.01580078 130.62890625 232.01171875 C124.67666592 228.46789936 118.76544086 224.85737633 112.8515625 221.25 C110.52630859 219.83289247 108.20086603 218.41610195 105.875 217 C104.97823547 216.45388062 104.97823547 216.45388062 104.06335449 215.89672852 C94.92875673 210.3383401 85.73732404 204.8856997 76.5 199.5 C67.00640703 193.96454881 57.56856954 188.34913545 48.1875 182.625 C37.99957195 176.40856039 27.76783411 170.27109341 17.5 164.1875 C16.81517548 163.78164673 16.13035095 163.37579346 15.42477417 162.9576416 C12.751766 161.37352507 10.07871546 159.78948009 7.40553284 158.20565796 C-3.24030863 151.89654686 -13.85217851 145.53217209 -24.41796875 139.08984375 C-26.75757199 137.66366749 -29.09741364 136.23788343 -31.4375 134.8125 C-32.02793091 134.45283142 -32.61836182 134.09316284 -33.22668457 133.72259521 C-41.66796351 128.58486154 -50.15581595 123.53443288 -58.69152832 118.55526733 C-64.1333677 115.37988151 -69.56767648 112.19163102 -75 109 C-75.94404694 108.44578369 -75.94404694 108.44578369 -76.90716553 107.88037109 C-80.73626014 105.63025586 -84.55679672 103.36652994 -88.36767578 101.08569336 C-89.55590636 100.37680399 -90.74641153 99.67170957 -91.93945312 98.97094727 C-102.58186615 92.71348944 -115.87279979 84.38160064 -120 72 C-104.71392932 62.6687658 -89.38357245 53.41968215 -73.97079468 44.29922485 C-64.54574318 38.72042339 -55.16135732 33.08048792 -45.8125 27.375 C-34.66514477 20.57356406 -23.43273276 13.92848712 -12.1496582 7.35498047 C-11.55829071 7.01018143 -10.96692322 6.66538239 -10.3576355 6.31013489 C-8.75850921 5.3782723 -7.15846183 4.44799087 -5.55834961 3.51782227 C-3.67258207 2.3990307 -1.824414 1.216276 0 0 Z " fill="#662579" transform="translate(228,503)"/>
<path d="M0 0 C0.83402344 0.61488281 1.66804687 1.22976563 2.52734375 1.86328125 C12.26313875 9.3488925 23.99158432 18.97475297 28 31 C27.16154541 31.49701416 26.32309082 31.99402832 25.45922852 32.50610352 C10.35721285 41.45951303 -4.74189775 50.41674658 -19.78100586 59.47558594 C-25.33991162 62.81973936 -30.91571418 66.13253187 -36.51171875 69.4140625 C-37.77306711 70.15529269 -39.03437928 70.89658447 -40.2956543 71.63793945 C-42.72221443 73.06407323 -45.15260116 74.48337604 -47.58520508 75.89916992 C-49.21365356 76.85593628 -49.21365356 76.85593628 -50.875 77.83203125 C-51.84179688 78.39639893 -52.80859375 78.9607666 -53.8046875 79.54223633 C-56.11404452 80.81332063 -56.11404452 80.81332063 -57 83 C-58.67773567 83.73794257 -60.35853223 84.46994466 -62.05621338 85.1607666 C-65.12185307 86.4843621 -67.95105478 88.20081495 -70.8046875 89.921875 C-71.43715393 90.29861359 -72.06962036 90.67535217 -72.72125244 91.06350708 C-74.77498272 92.28823763 -76.82499591 93.51904447 -78.875 94.75 C-80.31211771 95.60860323 -81.7494576 96.46683467 -83.18701172 97.32470703 C-87.46146878 99.87738052 -91.73117286 102.43792615 -96 105 C-97.19463657 105.71651285 -98.38929659 106.43298661 -99.58398438 107.14941406 C-103.76876256 109.65953943 -107.95262227 112.17119318 -112.13647461 114.68286133 C-115.09058275 116.45590921 -118.04520627 118.22809493 -121 120 C-122.04623535 120.62793457 -123.0924707 121.25586914 -124.17041016 121.90283203 C-127.25662458 123.75248402 -130.34649528 125.59586713 -133.4375 127.4375 C-134.37416504 128.00001465 -135.31083008 128.5625293 -136.27587891 129.14208984 C-137.56051025 129.90513428 -137.56051025 129.90513428 -138.87109375 130.68359375 C-139.62318115 131.13275146 -140.37526855 131.58190918 -141.15014648 132.04467773 C-143 133 -143 133 -145 133 C-157.23661176 108.46737545 -163.55447103 80.49024757 -155.26171875 53.4296875 C-144.71235971 24.75372082 -125.96236452 2.88634237 -98.2109375 -10.20703125 C-66.87290815 -24.13258177 -27.67195794 -20.6513953 0 0 Z " fill="#9A5196" transform="translate(459,318)"/>
<path d="M0 0 C8.25 0 16.5 0 25 0 C25 8.25 25 16.5 25 25 C41.5 25 58 25 75 25 C75 16.75 75 8.5 75 0 C83.25 0 91.5 0 100 0 C100 8.25 100 16.5 100 25 C108.25 25 116.5 25 125 25 C125 33.25 125 41.5 125 50 C116.75 50 108.5 50 100 50 C100 66.5 100 83 100 100 C108.25 100 116.5 100 125 100 C125 108.25 125 116.5 125 125 C116.75 125 108.5 125 100 125 C100 133.25 100 141.5 100 150 C91.75 150 83.5 150 75 150 C75 141.75 75 133.5 75 125 C58.5 125 42 125 25 125 C25 133.25 25 141.5 25 150 C16.75 150 8.5 150 0 150 C0 141.75 0 133.5 0 125 C-8.25 125 -16.5 125 -25 125 C-25 116.75 -25 108.5 -25 100 C-16.75 100 -8.5 100 0 100 C0 83.5 0 67 0 50 C-8.25 50 -16.5 50 -25 50 C-25 41.75 -25 33.5 -25 25 C-16.75 25 -8.5 25 0 25 C0 16.75 0 8.5 0 0 Z " fill="#FEFEFF" transform="translate(550,325)"/>
<path d="M0 0 C2.74365234 1.37255859 2.74365234 1.37255859 5.5859375 3.1484375 C6.66544678 3.81456055 7.74495605 4.48068359 8.85717773 5.16699219 C9.42878632 5.52579468 10.0003949 5.88459717 10.58932495 6.25427246 C13.69221104 8.20170959 16.81475251 10.11732485 19.93359375 12.0390625 C20.58777786 12.44350586 21.24196198 12.84794922 21.91596985 13.26464844 C28.6898421 17.44575258 35.538168 21.49772764 42.39385986 25.54275513 C46.4039513 27.91164691 50.40588941 30.29427495 54.4083252 32.67607117 C57.42036989 34.46815295 60.43396435 36.2573769 63.45361328 38.03662109 C66.477686 39.822972 69.49028159 41.62710361 72.5 43.4375 C73.37841553 43.95086914 74.25683105 44.46423828 75.16186523 44.99316406 C75.94376221 45.46850586 76.72565918 45.94384766 77.53125 46.43359375 C78.20736328 46.83634521 78.88347656 47.23909668 79.58007812 47.65405273 C80.28293945 48.32029663 80.28293945 48.32029663 81 49 C81 57.21425333 73.25260891 63.95356681 67.8125 69.625 C48.32952553 88.4639092 22.67382261 98.59313792 -4.3034668 98.28076172 C-33.94332203 97.55409679 -58.03542972 85.71341812 -78.625 64.62890625 C-82.44396253 60.40166647 -86.23110307 55.99731849 -89 51 C-87.67073777 47.0122133 -86.05339263 46.58422615 -82.4375 44.515625 C-81.86353989 44.18355042 -81.28957977 43.85147583 -80.69822693 43.50933838 C-79.45520344 42.79143935 -78.20981378 42.07762527 -76.96237183 41.36743164 C-74.3016495 39.8523389 -71.65256737 38.31740345 -69.00254822 36.78369141 C-67.64300546 35.99717991 -66.28286128 35.21170717 -64.9221344 34.42724609 C-58.72080901 30.85064606 -52.5716595 27.19057542 -46.4375 23.5 C-45.44516357 22.90670898 -44.45282715 22.31341797 -43.43041992 21.70214844 C-38.37857591 18.67338928 -33.35428945 15.60713357 -28.36943054 12.46960449 C-25.81243086 10.86190274 -23.24796186 9.26632058 -20.68313599 7.67114258 C-19.44713801 6.89732561 -18.2149981 6.11730791 -16.98703003 5.33081055 C-15.27829842 4.23664928 -13.55540089 3.16470736 -11.83203125 2.09375 C-10.84952393 1.47177734 -9.8670166 0.84980469 -8.85473633 0.20898438 C-5.31045395 -1.29202361 -3.66309453 -1.09248611 0 0 Z " fill="#662579" transform="translate(404,402)"/>
<path d="M0 0 C16.5 0 33 0 50 0 C50 16.5 50 33 50 50 C33.5 50 17 50 0 50 C0 33.5 0 17 0 0 Z " fill="#7F3A86" transform="translate(575,375)"/>
</svg>
